<mxfile host="app.diagrams.net" modified="2023-05-07T14:28:43.738Z" agent="Mozilla/5.0 (Windows NT 10.0; Win64; x64) AppleWebKit/537.36 (KHTML, like Gecko) Chrome/110.0.0.0 YaBrowser/23.3.3.719 Yowser/2.5 Safari/537.36" etag="fQvnNmq8jcxJxFZHVeXW" version="21.2.9" type="device">
  <diagram name="Страница 1" id="5N-lYxhUz0HbG9fVr7en">
    <mxGraphModel dx="832" dy="2817" grid="1" gridSize="10" guides="1" tooltips="1" connect="1" arrows="1" fold="1" page="1" pageScale="1" pageWidth="827" pageHeight="1169" math="0" shadow="0">
      <root>
        <mxCell id="0" />
        <mxCell id="1" parent="0" />
        <mxCell id="ynRYFGm_w2BwS7nESspv-1" value="&lt;font size=&quot;1&quot; face=&quot;Times New Roman&quot;&gt;&lt;b style=&quot;font-size: 23px;&quot;&gt;Начало&lt;/b&gt;&lt;br&gt;&lt;/font&gt;" style="ellipse;whiteSpace=wrap;html=1;" vertex="1" parent="1">
          <mxGeometry x="220" y="-1640" width="240" height="80" as="geometry" />
        </mxCell>
        <mxCell id="ynRYFGm_w2BwS7nESspv-3" value="" style="endArrow=classic;html=1;rounded=0;" edge="1" parent="1">
          <mxGeometry width="50" height="50" relative="1" as="geometry">
            <mxPoint x="339.5" y="-1560" as="sourcePoint" />
            <mxPoint x="339.5" y="-1520" as="targetPoint" />
          </mxGeometry>
        </mxCell>
        <mxCell id="ynRYFGm_w2BwS7nESspv-4" value="&lt;b style=&quot;font-size: 16px;&quot;&gt;&lt;font style=&quot;font-size: 16px;&quot; face=&quot;Times New Roman&quot;&gt;&lt;br&gt;Обьявление массива&lt;br&gt;и значений.&lt;br&gt;&lt;br&gt;&lt;/font&gt;&lt;/b&gt;" style="shape=parallelogram;html=1;strokeWidth=2;perimeter=parallelogramPerimeter;whiteSpace=wrap;rounded=1;arcSize=12;size=0.23;" vertex="1" parent="1">
          <mxGeometry x="190" y="-1520" width="280" height="60" as="geometry" />
        </mxCell>
        <mxCell id="ynRYFGm_w2BwS7nESspv-5" value="" style="endArrow=classic;html=1;rounded=0;" edge="1" parent="1">
          <mxGeometry width="50" height="50" relative="1" as="geometry">
            <mxPoint x="329.5" y="-1460" as="sourcePoint" />
            <mxPoint x="329.5" y="-1420" as="targetPoint" />
          </mxGeometry>
        </mxCell>
        <mxCell id="ynRYFGm_w2BwS7nESspv-8" value="&lt;div style=&quot;font-size: 13px;&quot;&gt;&lt;ul&gt;&lt;li style=&quot;&quot;&gt;&lt;b style=&quot;background-color: initial;&quot;&gt;&lt;font style=&quot;font-size: 13px;&quot; face=&quot;Times New Roman&quot;&gt;Выполнение цикла пока левая граница&amp;nbsp;&lt;/font&gt;&lt;/b&gt;&lt;/li&gt;&lt;/ul&gt;&lt;b style=&quot;background-color: initial;&quot;&gt;&lt;div style=&quot;&quot;&gt;&lt;b style=&quot;background-color: initial;&quot;&gt;&lt;font style=&quot;font-size: 13px;&quot; face=&quot;Times New Roman&quot;&gt;не сомкнётся с правой.&lt;/font&gt;&lt;/b&gt;&lt;/div&gt;&lt;/b&gt;&lt;/div&gt;" style="shape=parallelogram;html=1;strokeWidth=2;perimeter=parallelogramPerimeter;whiteSpace=wrap;rounded=1;arcSize=12;size=0.23;align=center;" vertex="1" parent="1">
          <mxGeometry x="150" y="-1420" width="340" height="60" as="geometry" />
        </mxCell>
        <mxCell id="ynRYFGm_w2BwS7nESspv-9" value="" style="endArrow=classic;html=1;rounded=0;" edge="1" parent="1">
          <mxGeometry width="50" height="50" relative="1" as="geometry">
            <mxPoint x="329.5" y="-1360" as="sourcePoint" />
            <mxPoint x="329.5" y="-1320" as="targetPoint" />
          </mxGeometry>
        </mxCell>
        <mxCell id="ynRYFGm_w2BwS7nESspv-60" style="edgeStyle=orthogonalEdgeStyle;rounded=0;orthogonalLoop=1;jettySize=auto;html=1;entryX=0;entryY=0.25;entryDx=0;entryDy=0;" edge="1" parent="1" source="ynRYFGm_w2BwS7nESspv-10" target="ynRYFGm_w2BwS7nESspv-25">
          <mxGeometry relative="1" as="geometry">
            <mxPoint x="160" y="-950" as="targetPoint" />
            <Array as="points">
              <mxPoint x="141" y="-1145" />
              <mxPoint x="141" y="-886" />
            </Array>
          </mxGeometry>
        </mxCell>
        <mxCell id="ynRYFGm_w2BwS7nESspv-10" value="&lt;b&gt;&lt;font style=&quot;font-size: 15px;&quot; face=&quot;Times New Roman&quot;&gt;Текущий элемент меньше предыдущего?&lt;/font&gt;&lt;/b&gt;" style="strokeWidth=2;html=1;shape=mxgraph.flowchart.decision;whiteSpace=wrap;" vertex="1" parent="1">
          <mxGeometry x="215" y="-1210" width="230" height="130" as="geometry" />
        </mxCell>
        <mxCell id="ynRYFGm_w2BwS7nESspv-11" value="" style="endArrow=classic;html=1;rounded=0;exitX=1;exitY=0.5;exitDx=0;exitDy=0;exitPerimeter=0;" edge="1" parent="1" source="ynRYFGm_w2BwS7nESspv-10" target="ynRYFGm_w2BwS7nESspv-18">
          <mxGeometry relative="1" as="geometry">
            <mxPoint x="445" y="-1255.5" as="sourcePoint" />
            <mxPoint x="600" y="-1255" as="targetPoint" />
            <Array as="points">
              <mxPoint x="590" y="-1150" />
              <mxPoint x="590" y="-1070" />
            </Array>
          </mxGeometry>
        </mxCell>
        <mxCell id="ynRYFGm_w2BwS7nESspv-24" style="edgeStyle=orthogonalEdgeStyle;rounded=0;orthogonalLoop=1;jettySize=auto;html=1;" edge="1" parent="1" source="ynRYFGm_w2BwS7nESspv-18">
          <mxGeometry relative="1" as="geometry">
            <mxPoint x="590" y="-910" as="targetPoint" />
          </mxGeometry>
        </mxCell>
        <mxCell id="ynRYFGm_w2BwS7nESspv-18" value="&lt;b&gt;&lt;font style=&quot;font-size: 14px;&quot; face=&quot;Times New Roman&quot;&gt;Меняем их местами&lt;br&gt;перемещения - были.&lt;br&gt;&lt;/font&gt;&lt;/b&gt;" style="rounded=1;whiteSpace=wrap;html=1;" vertex="1" parent="1">
          <mxGeometry x="510" y="-1040" width="160" height="60" as="geometry" />
        </mxCell>
        <mxCell id="ynRYFGm_w2BwS7nESspv-20" value="&lt;font size=&quot;1&quot; face=&quot;Times New Roman&quot;&gt;&lt;b style=&quot;font-size: 18px;&quot;&gt;Да&lt;/b&gt;&lt;/font&gt;" style="text;html=1;align=center;verticalAlign=middle;resizable=0;points=[];autosize=1;strokeColor=none;fillColor=none;" vertex="1" parent="1">
          <mxGeometry x="470" y="-1180" width="40" height="40" as="geometry" />
        </mxCell>
        <mxCell id="ynRYFGm_w2BwS7nESspv-23" value="" style="edgeStyle=orthogonalEdgeStyle;rounded=0;orthogonalLoop=1;jettySize=auto;html=1;" edge="1" parent="1" source="ynRYFGm_w2BwS7nESspv-21" target="ynRYFGm_w2BwS7nESspv-10">
          <mxGeometry relative="1" as="geometry" />
        </mxCell>
        <mxCell id="ynRYFGm_w2BwS7nESspv-21" value="&lt;font size=&quot;1&quot; face=&quot;Times New Roman&quot;&gt;&lt;b style=&quot;font-size: 17px;&quot;&gt;Двигаемся слева направо&lt;/b&gt;&lt;/font&gt;" style="shape=parallelogram;perimeter=parallelogramPerimeter;whiteSpace=wrap;html=1;fixedSize=1;" vertex="1" parent="1">
          <mxGeometry x="215" y="-1320" width="230" height="70" as="geometry" />
        </mxCell>
        <mxCell id="ynRYFGm_w2BwS7nESspv-26" style="edgeStyle=orthogonalEdgeStyle;rounded=0;orthogonalLoop=1;jettySize=auto;html=1;" edge="1" parent="1" source="ynRYFGm_w2BwS7nESspv-25" target="ynRYFGm_w2BwS7nESspv-27">
          <mxGeometry relative="1" as="geometry">
            <mxPoint x="350" y="-810" as="targetPoint" />
          </mxGeometry>
        </mxCell>
        <mxCell id="ynRYFGm_w2BwS7nESspv-25" value="&lt;font style=&quot;font-size: 13px;&quot; face=&quot;Times New Roman&quot;&gt;&lt;b&gt;сдвигаем правую границу &lt;br&gt;на предыдущий элемент&lt;/b&gt;&lt;/font&gt;" style="shape=parallelogram;perimeter=parallelogramPerimeter;whiteSpace=wrap;html=1;fixedSize=1;" vertex="1" parent="1">
          <mxGeometry x="520" y="-910" width="140" height="80" as="geometry" />
        </mxCell>
        <mxCell id="ynRYFGm_w2BwS7nESspv-28" style="edgeStyle=orthogonalEdgeStyle;rounded=0;orthogonalLoop=1;jettySize=auto;html=1;" edge="1" parent="1" source="ynRYFGm_w2BwS7nESspv-27" target="ynRYFGm_w2BwS7nESspv-29">
          <mxGeometry relative="1" as="geometry">
            <mxPoint x="337.5" y="-700" as="targetPoint" />
          </mxGeometry>
        </mxCell>
        <mxCell id="ynRYFGm_w2BwS7nESspv-27" value="&lt;b&gt;&lt;font style=&quot;font-size: 16px;&quot; face=&quot;Times New Roman&quot;&gt;Двигаемся справа налево.&lt;/font&gt;&lt;/b&gt;" style="shape=parallelogram;perimeter=parallelogramPerimeter;whiteSpace=wrap;html=1;fixedSize=1;" vertex="1" parent="1">
          <mxGeometry x="230" y="-820" width="215" height="70" as="geometry" />
        </mxCell>
        <mxCell id="ynRYFGm_w2BwS7nESspv-31" style="edgeStyle=orthogonalEdgeStyle;rounded=0;orthogonalLoop=1;jettySize=auto;html=1;" edge="1" parent="1" source="ynRYFGm_w2BwS7nESspv-29">
          <mxGeometry relative="1" as="geometry">
            <mxPoint x="550" y="-630" as="targetPoint" />
          </mxGeometry>
        </mxCell>
        <mxCell id="ynRYFGm_w2BwS7nESspv-56" style="edgeStyle=orthogonalEdgeStyle;rounded=0;orthogonalLoop=1;jettySize=auto;html=1;entryX=0.019;entryY=0.843;entryDx=0;entryDy=0;entryPerimeter=0;" edge="1" parent="1" source="ynRYFGm_w2BwS7nESspv-29" target="ynRYFGm_w2BwS7nESspv-35">
          <mxGeometry relative="1" as="geometry">
            <mxPoint x="490" y="-490" as="targetPoint" />
            <Array as="points">
              <mxPoint x="141" y="-630" />
              <mxPoint x="141" y="-480" />
              <mxPoint x="490" y="-480" />
              <mxPoint x="490" y="-481" />
            </Array>
          </mxGeometry>
        </mxCell>
        <mxCell id="ynRYFGm_w2BwS7nESspv-29" value="&lt;b style=&quot;font-size: 15px;&quot;&gt;&lt;font style=&quot;font-size: 15px;&quot; face=&quot;Times New Roman&quot;&gt;Предыдущий элемент &lt;br&gt;&amp;gt; текущего?&lt;/font&gt;&lt;/b&gt;" style="rhombus;whiteSpace=wrap;html=1;" vertex="1" parent="1">
          <mxGeometry x="238.75" y="-700" width="197.5" height="140" as="geometry" />
        </mxCell>
        <mxCell id="ynRYFGm_w2BwS7nESspv-32" value="&lt;font size=&quot;1&quot; face=&quot;Times New Roman&quot;&gt;&lt;b style=&quot;font-size: 16px;&quot;&gt;Да&lt;/b&gt;&lt;/font&gt;" style="text;html=1;align=center;verticalAlign=middle;resizable=0;points=[];autosize=1;strokeColor=none;fillColor=none;" vertex="1" parent="1">
          <mxGeometry x="450" y="-662" width="40" height="30" as="geometry" />
        </mxCell>
        <mxCell id="ynRYFGm_w2BwS7nESspv-34" style="edgeStyle=orthogonalEdgeStyle;rounded=0;orthogonalLoop=1;jettySize=auto;html=1;" edge="1" parent="1" source="ynRYFGm_w2BwS7nESspv-33">
          <mxGeometry relative="1" as="geometry">
            <mxPoint x="630" y="-540" as="targetPoint" />
          </mxGeometry>
        </mxCell>
        <mxCell id="ynRYFGm_w2BwS7nESspv-33" value="&lt;b&gt;&lt;font style=&quot;font-size: 14px;&quot; face=&quot;Times New Roman&quot;&gt;Меняем их местами&lt;br&gt;перемещения - были.&lt;br&gt;&lt;/font&gt;&lt;/b&gt;" style="rounded=1;whiteSpace=wrap;html=1;" vertex="1" parent="1">
          <mxGeometry x="550" y="-660" width="160" height="60" as="geometry" />
        </mxCell>
        <mxCell id="ynRYFGm_w2BwS7nESspv-41" value="" style="edgeStyle=orthogonalEdgeStyle;rounded=0;orthogonalLoop=1;jettySize=auto;html=1;" edge="1" parent="1" source="ynRYFGm_w2BwS7nESspv-35" target="ynRYFGm_w2BwS7nESspv-40">
          <mxGeometry relative="1" as="geometry" />
        </mxCell>
        <mxCell id="ynRYFGm_w2BwS7nESspv-35" value="&lt;font style=&quot;font-size: 13px;&quot; face=&quot;Times New Roman&quot;&gt;&lt;b&gt;сдвигаем левую &lt;br&gt;границу на следующий элемент&lt;/b&gt;&lt;/font&gt;" style="shape=parallelogram;perimeter=parallelogramPerimeter;whiteSpace=wrap;html=1;fixedSize=1;" vertex="1" parent="1">
          <mxGeometry x="550" y="-540" width="160" height="70" as="geometry" />
        </mxCell>
        <mxCell id="ynRYFGm_w2BwS7nESspv-37" value="&lt;font style=&quot;font-size: 16px;&quot; face=&quot;Times New Roman&quot;&gt;&lt;b&gt;Нет&lt;/b&gt;&lt;/font&gt;" style="text;html=1;align=center;verticalAlign=middle;resizable=0;points=[];autosize=1;strokeColor=none;fillColor=none;" vertex="1" parent="1">
          <mxGeometry x="170" y="-662" width="50" height="30" as="geometry" />
        </mxCell>
        <mxCell id="ynRYFGm_w2BwS7nESspv-39" value="&lt;font style=&quot;font-size: 16px;&quot; face=&quot;Times New Roman&quot;&gt;&lt;b&gt;Нет&lt;/b&gt;&lt;/font&gt;" style="text;html=1;align=center;verticalAlign=middle;resizable=0;points=[];autosize=1;strokeColor=none;fillColor=none;" vertex="1" parent="1">
          <mxGeometry x="100" y="-1180" width="50" height="30" as="geometry" />
        </mxCell>
        <mxCell id="ynRYFGm_w2BwS7nESspv-42" style="edgeStyle=orthogonalEdgeStyle;rounded=0;orthogonalLoop=1;jettySize=auto;html=1;" edge="1" parent="1" source="ynRYFGm_w2BwS7nESspv-40" target="ynRYFGm_w2BwS7nESspv-44">
          <mxGeometry relative="1" as="geometry">
            <mxPoint x="440" y="-355" as="targetPoint" />
          </mxGeometry>
        </mxCell>
        <mxCell id="ynRYFGm_w2BwS7nESspv-40" value="&lt;font face=&quot;Times New Roman&quot;&gt;&lt;span style=&quot;font-size: 16px;&quot;&gt;&lt;b&gt;Вводим элементы &lt;br&gt;массива&lt;/b&gt;&lt;/span&gt;&lt;/font&gt;" style="shape=parallelogram;perimeter=parallelogramPerimeter;whiteSpace=wrap;html=1;fixedSize=1;" vertex="1" parent="1">
          <mxGeometry x="550" y="-390" width="160" height="70" as="geometry" />
        </mxCell>
        <mxCell id="ynRYFGm_w2BwS7nESspv-58" value="" style="edgeStyle=orthogonalEdgeStyle;rounded=0;orthogonalLoop=1;jettySize=auto;html=1;" edge="1" parent="1" source="ynRYFGm_w2BwS7nESspv-44" target="ynRYFGm_w2BwS7nESspv-46">
          <mxGeometry relative="1" as="geometry" />
        </mxCell>
        <mxCell id="ynRYFGm_w2BwS7nESspv-44" value="&lt;font style=&quot;font-size: 15px;&quot; face=&quot;Times New Roman&quot;&gt;&lt;b&gt;вызываем функцию &lt;br&gt;сортировки&lt;/b&gt;&lt;/font&gt;" style="shape=parallelogram;perimeter=parallelogramPerimeter;whiteSpace=wrap;html=1;fixedSize=1;" vertex="1" parent="1">
          <mxGeometry x="220" y="-387.5" width="220" height="65" as="geometry" />
        </mxCell>
        <mxCell id="ynRYFGm_w2BwS7nESspv-48" value="" style="edgeStyle=orthogonalEdgeStyle;rounded=0;orthogonalLoop=1;jettySize=auto;html=1;" edge="1" parent="1" source="ynRYFGm_w2BwS7nESspv-46" target="ynRYFGm_w2BwS7nESspv-47">
          <mxGeometry relative="1" as="geometry" />
        </mxCell>
        <mxCell id="ynRYFGm_w2BwS7nESspv-46" value="&lt;font style=&quot;font-size: 14px;&quot; face=&quot;Times New Roman&quot;&gt;&lt;b&gt;Выводим отсортированные элементы&lt;br&gt;&amp;nbsp;массива&lt;/b&gt;&lt;/font&gt;" style="shape=parallelogram;perimeter=parallelogramPerimeter;whiteSpace=wrap;html=1;fixedSize=1;" vertex="1" parent="1">
          <mxGeometry x="207.5" y="-280" width="216.25" height="80" as="geometry" />
        </mxCell>
        <mxCell id="ynRYFGm_w2BwS7nESspv-47" value="&lt;font size=&quot;1&quot; face=&quot;Times New Roman&quot;&gt;&lt;b style=&quot;font-size: 16px;&quot;&gt;Конец&lt;/b&gt;&lt;/font&gt;" style="ellipse;whiteSpace=wrap;html=1;" vertex="1" parent="1">
          <mxGeometry x="230" y="-150" width="171.25" height="60" as="geometry" />
        </mxCell>
      </root>
    </mxGraphModel>
  </diagram>
</mxfile>
